<?xml version="1.0" encoding="utf-8"?>
<!-- Generator: Adobe Illustrator 26.0.1, SVG Export Plug-In . SVG Version: 6.00 Build 0)  -->
<svg version="1.1" id="Layer_1" xmlns="http://www.w3.org/2000/svg" xmlns:xlink="http://www.w3.org/1999/xlink" x="0px" y="0px"
	 viewBox="0 0 192 80" style="enable-background:new 0 0 192 80;" xml:space="preserve">
<style type="text/css">
	.st0{fill:#EE2D2D;}
</style>
<g>
	<path class="st0" d="M33.9,1.3V4v7.8v5.9v5.2c0,5.9-2,11.1-6.1,15.4c1.9,2.6,3.4,5.4,4.5,8.3c1.1,3,1.6,5.9,1.6,8.9v5.2V80H23.3
		V60.8v-5.2c0-1.8-0.4-3.7-1.1-5.7c-0.7-2-1.8-3.8-3-5.4L19,44.3c-2.1,0.8-4.3,1.3-6.4,1.5V80H2V11.8V1.3h10.6H33.9z M23.3,11.8
		H12.6v23.4c2.9-0.4,5.3-1.7,7.2-3.8c1.1-1.1,1.9-2.4,2.5-3.9c0.6-1.5,0.9-3,0.9-4.6v-5.2V11.8z"/>
	<path class="st0" d="M62.7,1.3h10.6v10.5v57.7V80H62.7H52H41.4V69.5V11.8V1.3H52H62.7z M62.7,69.5V11.8H52v57.7H62.7z"/>
	<path class="st0" d="M102.1,30.2V11.8H91.4v16.1v1.4v1l19.2,14.2c1.4,1,2.1,2.5,2.1,4.2v20.9v8.1V80H91.4H80.8V69.5V51v-7.8
		L91.4,51v18.5h10.6V51l-19.2-14c-1.4-1-2.1-2.4-2.1-4.2v-3.7v-1.4V11.8V1.3h10.6h10.6h10.6v29H102.1z"/>
	<path class="st0" d="M141.5,30.2V11.8h-10.6v16.1v1.4v1L150,44.4c1.4,1,2.1,2.5,2.1,4.2v20.9v8.1V80h-21.3h-10.6V69.5V51v-7.8
		l10.6,7.8v18.5h10.6V51l-19.2-14c-1.4-1-2.1-2.4-2.1-4.2v-3.7v-1.4V11.8V1.3h10.6h10.6h10.6v29H141.5z"/>
	<path class="st0" d="M180.9,1.3h10.6v10.5v57.7V80h-10.6h-10.6h-10.6V69.5V11.8V1.3h10.6H180.9z M180.9,69.5V11.8h-10.6v57.7H180.9
		z"/>
</g>
</svg>
